<svg viewBox="0 0 193.904 190.819" xmlns="http://www.w3.org/2000/svg"><defs><clipPath clipPathUnits="userSpaceOnUse" id="a"><path d="M69.998 280.725h149.401v149.401H69.998Z" transform="translate(-208.016 -262.702)"/></clipPath><clipPath clipPathUnits="userSpaceOnUse" id="b"><path d="M69.998 280.725h149.401v149.401H69.998Z" transform="translate(-191.928 -303.6)"/></clipPath><clipPath clipPathUnits="userSpaceOnUse" id="c"><path d="M69.998 280.725h149.401v149.401H69.998Z" transform="translate(-178.377 -311.785)"/></clipPath><clipPath clipPathUnits="userSpaceOnUse" id="d"><path d="M69.998 280.725h149.401v149.401H69.998Z" transform="translate(-123.381 -312.285)"/></clipPath><clipPath clipPathUnits="userSpaceOnUse" id="e"><path d="M69.998 280.725h149.401v149.401H69.998Z" transform="translate(-126.02 -358.508)"/></clipPath><clipPath clipPathUnits="userSpaceOnUse" id="f"><path d="M69.998 280.725h149.401v149.401H69.998Z" transform="translate(-130.318 -347.539)"/></clipPath><clipPath clipPathUnits="userSpaceOnUse" id="g"><path d="M69.998 280.725h149.401v149.401H69.998Z" transform="translate(-140.058 -340.045)"/></clipPath><clipPath clipPathUnits="userSpaceOnUse" id="h"><path d="M69.998 280.725h149.401v149.401H69.998Z" transform="translate(-135.01 -373.14)"/></clipPath><clipPath clipPathUnits="userSpaceOnUse" id="i"><path d="M69.998 280.725h149.401v149.401H69.998Z" transform="translate(-125.383 -362.887)"/></clipPath><clipPath clipPathUnits="userSpaceOnUse" id="j"><path d="M69.998 280.725h149.401v149.401H69.998Z" transform="translate(-153.818 -356.67)"/></clipPath><clipPath clipPathUnits="userSpaceOnUse" id="k"><path d="M69.998 280.725h149.401v149.401H69.998Z" transform="translate(-120.057 -362.522)"/></clipPath><clipPath clipPathUnits="userSpaceOnUse" id="l"><path d="M69.998 280.725h149.401v149.401H69.998Z" transform="translate(-143.48 -369.626)"/></clipPath><clipPath clipPathUnits="userSpaceOnUse" id="m"><path d="M69.998 280.725h149.401v149.401H69.998Z" transform="translate(-157.887 -369.626)"/></clipPath><clipPath clipPathUnits="userSpaceOnUse" id="n"><path d="M69.998 280.725h149.401v149.401H69.998Z" transform="translate(-150.034 -353.789)"/></clipPath><clipPath clipPathUnits="userSpaceOnUse" id="o"><path d="M69.998 280.725h149.401v149.401H69.998Z" transform="translate(-139.429 -374.75)"/></clipPath><clipPath clipPathUnits="userSpaceOnUse" id="p"><path d="M69.998 280.725h149.401v149.401H69.998Z" transform="translate(-160.599 -376.13)"/></clipPath><clipPath clipPathUnits="userSpaceOnUse" id="q"><path d="M69.998 280.725h149.401v149.401H69.998Z" transform="translate(-124.507 -359.917)"/></clipPath><clipPath clipPathUnits="userSpaceOnUse" id="r"><path d="M69.998 280.725h149.401v149.401H69.998Z" transform="translate(-130.318 -317.399)"/></clipPath><clipPath clipPathUnits="userSpaceOnUse" id="s"><path d="M69.998 280.725h149.401v149.401H69.998Z" transform="translate(-148.572 -307.28)"/></clipPath><clipPath clipPathUnits="userSpaceOnUse" id="t"><path d="M0 500h500V0H0Z" transform="translate(-144.327 -290.399)"/></clipPath><clipPath clipPathUnits="userSpaceOnUse" id="u"><path d="M0 500h500V0H0Z" transform="translate(-146.168 -274.325)"/></clipPath><clipPath clipPathUnits="userSpaceOnUse" id="v"><path d="M0 500h500V0H0Z" transform="translate(-126.239 -313.713)"/></clipPath><clipPath clipPathUnits="userSpaceOnUse" id="w"><path d="M0 500h500V0H0Z" transform="translate(-112.29 -291.915)"/></clipPath></defs><path d="M0 0c-2.099 0-4.223.577-6.125 1.786C-29.76 16.809-51.736 45.94-52.66 47.173c-3.79 5.055-2.763 12.224 2.293 16.014 5.055 3.787 12.22 2.761 16.011-2.289.202-.27 20.43-27.045 40.503-39.803 5.332-3.389 6.907-10.458 3.519-15.79A11.432 11.432 0 0 0 0 0" style="fill:#eeb399;fill-opacity:1;fill-rule:nonzero;stroke:none" transform="matrix(1.33333 0 0 -1.33333 178.726 189.929)" clip-path="url(#a)"/><path d="M0 0c-10.516 10.914-18.035 20.866-18.162 21.034-4.024 5.36-11.627 6.448-16.992 2.429-5.366-4.022-6.456-11.63-2.434-16.996.609-.813 9.85-13.062 22.777-26.045C-11.06-17.116-2.344-10.41 0 0" style="fill:#d8a056;fill-opacity:1;fill-rule:nonzero;stroke:none" transform="matrix(1.33333 0 0 -1.33333 157.276 135.4)" clip-path="url(#b)"/><path d="m0 0-.906-81.979s-17.755-11.249-43.952-9.945C-71.056-90.622-77.51-79.511-77.51-79.511s-.804 80.327-.1 81.17c.704.842 2.039 27.342 40.01 24.459C.37 23.235 0 0 0 0" style="fill:#f4bc67;fill-opacity:1;fill-rule:nonzero;stroke:none" transform="matrix(1.33333 0 0 -1.33333 139.208 124.485)" clip-path="url(#c)"/><path d="M0 0s-9.505-31.672 12.92-33.306l-34.454-3.267z" style="fill:#d8a056;fill-opacity:1;fill-rule:nonzero;stroke:none" transform="matrix(1.33333 0 0 -1.33333 65.88 123.818)" clip-path="url(#d)"/><path d="m0 0 2.956-22.486 17.421-12.358 3.437 11.741L22.037-9.58z" style="fill:#eeb399;fill-opacity:1;fill-rule:nonzero;stroke:none" transform="matrix(1.33333 0 0 -1.33333 69.4 62.187)" clip-path="url(#e)"/><path d="m0 0 18.384-3.52.947-7.198C9.328-10.698 0 0 0 0" style="fill:#cc957f;fill-opacity:1;fill-rule:nonzero;stroke:none" transform="matrix(1.33333 0 0 -1.33333 75.13 76.813)" clip-path="url(#f)"/><path d="m0 0 9.361.388C17.364.72 23.642 7.54 23.31 15.544l-1.074 25.893c-.332 8.004-7.153 14.281-15.156 13.949l-9.361-.388c-8.004-.332-14.281-7.152-13.949-15.156l1.074-25.893C-14.824 5.945-8.003-.332 0 0" style="fill:#eeb399;fill-opacity:1;fill-rule:nonzero;stroke:none" transform="matrix(1.33333 0 0 -1.33333 88.116 86.804)" clip-path="url(#g)"/><path d="M0 0c.791 2.882.812 6.147 2.723 8.445.177.214.387.426.659.484.214.045.434-.013.646-.069 1.181-.306 2.604-.469 3.471.39.515.511.941 1.398 1.647 1.234.256-.059.453-.255.646-.432a6.48 6.48 0 0 1 5.331-1.579c1.476.242 3.051.987 4.377.297.331-.171.614-.422.941-.6 1.746-.949 4.246.366 5.764-.917.424-.358.687-.867.94-1.362.171-.338.463-.734.83-.638.146.039.259.151.359.264a4.717 4.717 0 0 1 1.064 4.056c-.289 1.344-1.152 2.482-1.991 3.571-.86 1.115-1.728 2.238-2.796 3.155-1.248 1.071-2.732 1.826-4.235 2.493-2.831 1.254-5.802 2.234-8.869 2.661-1.773.247-3.594.306-5.341-.084-1.99-.444-3.802-1.45-5.561-2.48-1.762-1.033-3.529-2.125-4.902-3.638-2.628-2.896-3.498-6.955-3.954-10.838-.188-1.6-.323-3.227-.055-4.815.26-1.538.888-2.986 1.51-4.416.313-.718.726-2.45 1.67-2.612.865-.149 1.77 1.238 2.243 1.825A15.472 15.472 0 0 1 0 0" style="fill:#dda38c;fill-opacity:1;fill-rule:nonzero;stroke:none" transform="matrix(1.33333 0 0 -1.33333 81.387 42.677)" clip-path="url(#h)"/><path d="M0 0c.675-1.161 2.42-1.296 3.563-.592 1.144.703 1.794 1.982 2.265 3.24 1.525 4.083 1.723 8.527 1.812 12.886.036 1.745.078 3.575.941 5.092.862 1.518 2.844 2.555 4.4 1.765.127-.064.251-.14.39-.164.421-.075.759.315 1.062.619 1.031 1.038 2.571 1.37 4.03 1.491 1.213.101 2.529.061 3.511-.658.602-.441 1.032-1.11 1.698-1.447.947-.48 2.078-.167 3.136-.082a7.08 7.08 0 0 0 5.63-2.172c.59-.628 1.193-1.431 2.055-1.433.45-.002.866.229 1.307.321.44.092 1.003-.031 1.142-.459l.553-13.909c1.666 0 2.945 1.83 3.086 3.49.073.874-.154 1.772.064 2.621.161.626.549 1.164.889 1.714.812 1.315 1.376 2.765 1.935 4.206.228.589.46 1.195.467 1.827.029 3.113-.936 6.378-3.511 8.127-.633.431-1.363.807-1.715 1.487-.207.401-.255.861-.32 1.307-.868 5.97-5.593 11.194-11.446 12.655-1.113.277-2.325.422-3.382-.027-.727-.309-1.345-.887-2.122-1.032-.787-.148-1.575.175-2.329.443-5.028 1.788-11.119 1.1-14.996-2.567-1.045-.989-1.912-2.162-3.022-3.077-1.386-1.144-3.097-1.839-4.501-2.962-3.043-2.431-4.242-6.521-4.551-10.402-.149-1.871-.025-4.007 1.391-5.24-.515-1.391-1.046-2.924-.599-4.338.206-.656.607-1.23.968-1.815.435-.704.819-1.436 1.202-2.167.205-.389.414-.807.372-1.244-.036-.359-.237-.676-.395-1.001-.691-1.419-.575-3.094-.282-4.645a22.836 22.836 0 0 1 1.139-3.986c.277-.714.598-1.427 1.109-1.998.662-.74 1.588-1.181 2.487-1.603 0 0-.447 5.739.556 5.975" style="fill:#492127;fill-opacity:1;fill-rule:nonzero;stroke:none" transform="matrix(1.33333 0 0 -1.33333 68.55 56.35)" clip-path="url(#i)"/><path d="M0 0c-.237 0-.479.009-.729.029-.726.056-1.173.301-1.332.728a.23.23 0 0 0 .429.16c.091-.246.406-.391.938-.432C.649.383 1.778.57 2.665 1.043c1.062.57 1.764 1.605 1.787 2.639.014.71-.272 1.41-.543 2.012-.286.637-.609 1.283-.92 1.907C1.965 9.65.908 11.769.831 14.089a.228.228 0 0 0 .22.236.221.221 0 0 0 .237-.221c.074-2.22 1.108-4.293 2.11-6.299.313-.628.638-1.278.929-1.924.291-.647.599-1.404.582-2.209C4.883 2.476 4.086 1.286 2.881.64 2.084.214 1.117 0 0 0" style="fill:#b7745a;fill-opacity:1;fill-rule:nonzero;stroke:none" transform="matrix(1.33333 0 0 -1.33333 106.463 64.639)" clip-path="url(#j)"/><path d="M0 0a4.718 4.718 0 1 1 9.428.39A4.718 4.718 0 0 1 0 0" style="fill:#eeb399;fill-opacity:1;fill-rule:nonzero;stroke:none" transform="matrix(1.33333 0 0 -1.33333 61.448 56.835)" clip-path="url(#k)"/><path d="M0 0c0-.953-.399-1.726-.891-1.726s-.89.773-.89 1.726c0 .954.398 1.726.89 1.726S0 .954 0 0" style="fill:#231f20;fill-opacity:1;fill-rule:nonzero;stroke:none" transform="matrix(1.33333 0 0 -1.33333 92.679 47.363)" clip-path="url(#l)"/><path d="M0 0c0-.953-.399-1.726-.891-1.726S-1.782-.953-1.782 0c0 .954.399 1.726.891 1.726S0 .954 0 0" style="fill:#231f20;fill-opacity:1;fill-rule:nonzero;stroke:none" transform="matrix(1.33333 0 0 -1.33333 111.889 47.363)" clip-path="url(#m)"/><path d="M0 0c-.875 0-1.845.054-2.85.201-4.723.694-8.067 3.145-9.672 7.09a.23.23 0 0 0 .126.298.234.234 0 0 0 .298-.127c1.561-3.836 4.69-6.125 9.302-6.806C.67.143 3.715.785 3.745.792a.234.234 0 0 0 .272-.176.23.23 0 0 0-.176-.272C3.819.339 2.213 0 0 0" style="fill:#7a331e;fill-opacity:1;fill-rule:nonzero;stroke:none" transform="matrix(1.33333 0 0 -1.33333 101.417 68.48)" clip-path="url(#n)"/><path d="M0 0a.807.807 0 0 0-.377 1.521c.147.078 3.641 1.9 6.85 1.383a.806.806 0 0 0 .67-.924.799.799 0 0 0-.923-.669C3.535 1.732.406.109.375.093A.806.806 0 0 0 0 0" style="fill:#492127;fill-opacity:1;fill-rule:nonzero;stroke:none" transform="matrix(1.33333 0 0 -1.33333 87.277 40.532)" clip-path="url(#o)"/><path d="M0 0a.808.808 0 0 0-.625.295c-1.999 2.439-5.534 2.493-5.569 2.493a.807.807 0 0 0 .005 1.614c.166-.048 4.317-.039 6.812-3.083A.808.808 0 0 0 0 0" style="fill:#492127;fill-opacity:1;fill-rule:nonzero;stroke:none" transform="matrix(1.33333 0 0 -1.33333 115.504 38.691)" clip-path="url(#p)"/><path d="M0 0a.214.214 0 0 0-.065.01C-.66.186-1.363.472-1.52 1.129c-.057.235-.026.462.012.695.109.655.295 1.385.853 1.837.463.374 1.041.458 1.658.467l-.08.154c-.072.138-.141.271-.227.383-.187.243-.493.395-.841.415-.353.018-.67-.095-.884-.315a.228.228 0 1 0-.327.318c.307.316.768.477 1.238.454.48-.028.91-.244 1.177-.593a3.03 3.03 0 0 0 .27-.452c.086-.165.166-.322.277-.444a.23.23 0 0 0 .039-.249.23.23 0 0 0-.214-.133c-.689.013-1.347.003-1.798-.362-.44-.354-.595-.985-.69-1.555-.031-.19-.054-.362-.018-.515C-.974.809-.441.598.064.448A.228.228 0 0 0 .219.164.227.227 0 0 0 0 0" style="fill:#b7745a;fill-opacity:1;fill-rule:nonzero;stroke:none" transform="matrix(1.33333 0 0 -1.33333 67.381 60.31)" clip-path="url(#q)"/><path d="M0 0a.228.228 0 0 0-.19.101c-4.577 6.835-3.81 19.869-3.802 20 .009.126.138.208.242.214a.228.228 0 0 0 .215-.242C-3.543 19.944-4.289 7.244.095.5l15.798 5.17c.05.017.107.015.156-.005L28.781.55c.227 1.816 1.128 11.895-5.889 17.812a.229.229 0 0 0-.027.323c.081.097.226.11.322.027C31.083 12.054 29.212.308 29.192.191a.227.227 0 0 0-.311-.174L15.956 5.209.071.011A.215.215 0 0 0 0 0" style="fill:#af7d3a;fill-opacity:1;fill-rule:nonzero;stroke:none" transform="matrix(1.33333 0 0 -1.33333 75.13 117)" clip-path="url(#r)"/><path d="M0 0c-1.859 0-4.297.652-4.423.686a.228.228 0 0 0-.168.221v13.988a.229.229 0 0 0 .457 0V1.084C-3.396.898-.437.2 1.023.558a.229.229 0 0 0 .109-.445A4.875 4.875 0 0 0 0 0" style="fill:#af7d3a;fill-opacity:1;fill-rule:nonzero;stroke:none" transform="matrix(1.33333 0 0 -1.33333 99.468 130.492)" clip-path="url(#s)"/><path d="M0 0c-10.216-.598-20.295-1.465-30.368-2.407l-5.683-.563 16.947 26.204c3.43 5.305 1.911 12.387-3.394 15.817-5.305 3.431-12.387 1.911-15.817-3.393l-29.914-46.254-.352-.545a11.148 11.148 0 0 1-1.495-8.519c1.368-6.021 7.358-9.793 13.379-8.424a1691.154 1691.154 0 0 0 29.232 6.364c9.762 2.025 19.543 3.974 29.255 5.637l.051.009A8.103 8.103 0 0 1 0 0" style="fill:#eeb399;fill-opacity:1;fill-rule:nonzero;stroke:none" transform="matrix(1.33333 0 0 -1.33333 93.808 153)" clip-path="url(#t)"/><path d="M0 0s8.675 2.071 11.085 6.401h7.646s-.509 12.787-20.2 9.68z" style="fill:#eeb399;fill-opacity:1;fill-rule:nonzero;stroke:none" transform="matrix(1.33333 0 0 -1.33333 96.264 174.432)" clip-path="url(#u)"/><path d="M0 0c3.637 5.624 2.026 13.132-3.598 16.769-5.624 3.637-13.131 2.026-16.768-3.598l-17.415-26.928c3.81-2.195 13.846-7.384 23.831-7.813z" style="fill:#f4bc67;fill-opacity:1;fill-rule:nonzero;stroke:none" transform="matrix(1.33333 0 0 -1.33333 69.69 121.914)" clip-path="url(#v)"/><path d="M0 0h-.016c-.118.009-11.955.884-22.696 7.153a.228.228 0 1 0 .23.395C-12.449 1.693-1.45.583-.118.467l13.876 21.456a.228.228 0 0 0 .317.068.231.231 0 0 0 .068-.317L.192.104A.23.23 0 0 0 0 0" style="fill:#af7d3a;fill-opacity:1;fill-rule:nonzero;stroke:none" transform="matrix(1.33333 0 0 -1.33333 51.091 150.979)" clip-path="url(#w)"/></svg>